# xmcd
#
# Track frame offsets:
#	150
#	18016
#	31800
#	47652
#	64846
#	83551
#	100961
#	115145
#	133009
#	150777
#	164615
#	182409
#
# Disc length: 2671 seconds
# Revision: 0
# Processed by: cddbd v1.5.2PL0 Copyright (c) Steve Scherf et al.
# Submitted via: dBpowerAMP V12.0
#
DISCID=850a6d0c
DTITLE=Connie Kis Anderson - Connie Kis
DYEAR=1900
DGENRE=Country
TTITLE0=Turn It Up
TTITLE1=On The Other Side Of Midnight
TTITLE2=A Man In Boots
TTITLE3=Angels All Around Us
TTITLE4=Pearls For The World
TTITLE5=Steamy Dreams
TTITLE6=Life's Railway To Heaven
TTITLE7=It Won't Set You Free
TTITLE8=A Lover Like You
TTITLE9=Give The Games A Miss
TTITLE10=My Time Again
TTITLE11=Where My Heart Was Born
EXTD=
EXTT0=
EXTT1=
EXTT2=
EXTT3=
EXTT4=
EXTT5=
EXTT6=
EXTT7=
EXTT8=
EXTT9=
EXTT10=
EXTT11=
PLAYORDER=
